# xmcd CD database file
#
# Track frame offsets:
#	187
#	25647
#	42787
#	64170
#	91957
#	110200
#	132287
#	155580
#	177432
#	201145
#	235227
#
# Disc length: 3407 seconds
#
# Revision: 0
# Processed by: cddbd v1.5PL3 Copyright (c) Steve Scherf et al.
# Submitted via: CDex 1.51
#
DISCID=930d4d0b
DTITLE=Barry Harris - At The Jazz Workshop
DYEAR=1997
DGENRE=Jazz
TTITLE0=Is You Is Or Is You Ain't My Baby (Take 2)
TTITLE1=Curtain Call
TTITLE2=Star Eyes
TTITLE3=Moose The Mooche
TTITLE4=Lolita
TTITLE5=Morning Coffee
TTITLE6=Don't Blame Me (Take 2)
TTITLE7=Woody'n You (Take 2)
TTITLE8=Is You Is Or Is You Ain't My Baby (Take 1)
TTITLE9=Don't Blame Me (Take 1)
TTITLE10=Woody'n You (Take 1)
EXTD=YEAR: 1997
EXTT0=
EXTT1=
EXTT2=
EXTT3=
EXTT4=
EXTT5=
EXTT6=
EXTT7=
EXTT8=
EXTT9=
EXTT10=
PLAYORDER=
